<svg width="19" height="19" viewBox="0 0 19 19" fill="none" xmlns="http://www.w3.org/2000/svg">
<path d="M9.5 18.1232C4.52823 18.1232 0.5 14.0949 0.5 9.12317C0.5 4.15139 4.52823 0.123169 9.5 0.123169C14.4718 0.123169 18.5 4.15139 18.5 9.12317C18.5 14.0949 14.4718 18.1232 9.5 18.1232ZM10.5488 12.9119L7.80887 10.2845H14.4355C14.9181 10.2845 15.3065 9.89615 15.3065 9.41349V8.83285C15.3065 8.35018 14.9181 7.96188 14.4355 7.96188H7.80887L10.5488 5.33446C10.9008 4.99696 10.9081 4.43446 10.5633 4.0897L10.1641 3.69414C9.82298 3.35301 9.27137 3.35301 8.93387 3.69414L4.11814 8.50623C3.77702 8.84736 3.77702 9.39897 4.11814 9.73647L8.93387 14.5522C9.275 14.8933 9.82661 14.8933 10.1641 14.5522L10.5633 14.1566C10.9081 13.8119 10.9008 13.2494 10.5488 12.9119Z" fill="#242254"/>
</svg>
