<svg width="26" height="25" viewBox="0 0 26 25" fill="none" xmlns="http://www.w3.org/2000/svg">
<path d="M23.5625 0H2.4375C1.0918 0 0 1.19978 0 2.67857V22.3214C0 23.8002 1.0918 25 2.4375 25H23.5625C24.9082 25 26 23.8002 26 22.3214V2.67857C26 1.19978 24.9082 0 23.5625 0ZM19.3172 16.2109C19.5609 16.4788 19.5609 16.9141 19.3172 17.1819L17.2605 19.442C17.0168 19.7098 16.6207 19.7098 16.377 19.442L13 15.6975L9.62305 19.442C9.3793 19.7098 8.9832 19.7098 8.73945 19.442L6.68281 17.1819C6.43906 16.9141 6.43906 16.4788 6.68281 16.2109L10.0902 12.5L6.68281 8.78906C6.43906 8.52121 6.43906 8.08594 6.68281 7.81808L8.73945 5.55804C8.9832 5.29018 9.3793 5.29018 9.62305 5.55804L13 9.30245L16.377 5.55804C16.6207 5.29018 17.0168 5.29018 17.2605 5.55804L19.3172 7.81808C19.5609 8.08594 19.5609 8.52121 19.3172 8.78906L15.9098 12.5L19.3172 16.2109Z" fill="#242254"/>
</svg>
